<svg xmlns="http://www.w3.org/2000/svg" xmlns:xlink="http://www.w3.org/1999/xlink" width="29.333" height="22" viewBox="0 0 29.333 22">
  <defs>
    <style>
      .cls-1 {
        fill: #f36d91;
      }

      .cls-2 {
        clip-path: url(#clip-path);
      }

      .cls-3, .cls-4 {
        fill: none;
        stroke: #f36d91;
        stroke-miterlimit: 10;
      }

      .cls-3 {
        stroke-width: 3px;
      }

      .cls-4 {
        stroke-linecap: round;
        stroke-width: 1.3px;
      }
    </style>
    <clipPath id="clip-path">
      <path id="路径_263" data-name="路径 263" class="cls-1" d="M2,8.938A2.444,2.444,0,0,1,4.45,6.5H28.882a2.444,2.444,0,0,1,2.451,2.438V26.062A2.444,2.444,0,0,1,28.882,28.5H4.45A2.444,2.444,0,0,1,2,26.062Z" transform="translate(-2 -6.5)"/>
    </clipPath>
  </defs>
  <g id="邮件" transform="translate(-2 -6.5)">
    <g id="组_1816" data-name="组 1816" transform="translate(2 6.5)">
      <g id="组_1815" data-name="组 1815" class="cls-2">
        <path id="路径_262" data-name="路径 262" class="cls-3" d="M2,8.938A2.444,2.444,0,0,1,4.45,6.5H28.882a2.444,2.444,0,0,1,2.451,2.438V26.062A2.444,2.444,0,0,1,28.882,28.5H4.45A2.444,2.444,0,0,1,2,26.062Z" transform="translate(-2 -6.5)"/>
      </g>
    </g>
    <path id="路径_264" data-name="路径 264" class="cls-4" d="M4,8.5l9.1,9.045s1.891,1.965,3.916,1.965S21.2,17.545,21.2,17.545L30.074,8.5" transform="translate(-0.37 -0.37)"/>
    <path id="路径_265" data-name="路径 265" class="cls-4" d="M21.926,19.5l8.148,7.553M4,27.053,11.333,19.5" transform="translate(-0.37 -2.407)"/>
  </g>
</svg>
