<svg xmlns="http://www.w3.org/2000/svg" width="276.718" height="47.315" viewBox="0 0 276.718 47.315">
  <g id="Page-1" transform="translate(0 0)">
    <g id="Group-3">
      <path id="Fill-1" d="M72.027,7.767c.247,0,.367-.165.567-.191.779-.1,1.619.2,1.97-.045,1.349-.947.822-2.108-.669-2.155A3.37,3.37,0,0,0,71.1,6.952C70.639,7.661,71.779,7.766,72.027,7.767Zm-.278,7.192c.092-.442-.215-1.106-.059-1.451.234-.576,1.477-.606,1.514-.4s-.429.953-.189,1.464c.248.532.5.985,1.074.908.337-.045.233.391-.048.856-.211.352-1.873,2.217-2.4,1.772C71.274,17.8,71.171,16.1,71.749,14.959ZM68.7,13.583c-1.078.808-2.63,1.983-3.029,1.273-.409-.727,2.746-2.656,3.42-2.459C69.54,12.529,69.426,13.033,68.7,13.583Zm.32,3.76c-.221,1.216.169,2.178-.128,2.4-.444.333-1.083.3-1.592.482-.906.33-1.645.731-1.857.636-.452-.2.248-.355.345-.889.345-1.9.346-2.884.925-3.241.6-.371,1.018-.363,1.357-.592.681-.46.949-.94,1.028-.8A5.775,5.775,0,0,1,69.016,17.342ZM63.454,19.9c-.794-.648.838-1.867,1.281-1.859C65.55,18.061,64.313,20.592,63.454,19.9Zm11.2-.027c-1.714.272-2.491.67-3.016.145-.583-.588.553-.848.583-.848,1.73-.018,6.479-3.627,3.691-6.188-.95-.875-.247-1.7-1.774-1.548-.136.013-1.632.408-1.955.189a.7.7,0,0,1,.443-1.173c1.029-.155,2.765-.144,2.959-.2,1.9-.56,1.631-2.747-.662-2.116-1.3.356-2.262.6-2.933.244-.055-.029-.732-.421-1-.329s-.033.467-.592.513a13.467,13.467,0,0,0-4.026.448c-.54.221-1.781-.155-2.324.245s-1.392,1.93.043,2.526c.626.261,1.814-1.07,3.511-1.2.827-.062,1.125-.778,1.9-.263.311.207.148.3.02.448a33.477,33.477,0,0,0-4.468,2.041c-1.317.8-2.466,1.541-1.891,2.9.122.29,1.116.919.278,1.31-.8.373-1.907,1.18-2,1.838a10.571,10.571,0,0,0-.017,1.387c.123,1.093,1.511.862,1.464,1.3-.021.194-1.046.342-1.718.762-.45.282-.494,1.079-.454,1.433.06.546.381.391,1.481.393a11.354,11.354,0,0,0,4.4-.9,4.1,4.1,0,0,1,1.809-.169c.542.148.358.876-.282,1.061-1.3.38-6.788,2.064-4.31,3.721a3.908,3.908,0,0,0,2.384.246c.442-.138,1.485-.891,1.984-.472.561.468-.448,2.271.635,2.9.7.407,1.427.536,1.623,0,.312-.857.161-3.17.5-3.446,1.012-.81,4.488.106,4.945-1.35.54-1.693-.4-2.417-.979-2.326a22.054,22.054,0,0,1-3.572.6c-.376-.019-.264-.644-.122-1.108.339-1.127,3.063-.421,5.024-.522a11.258,11.258,0,0,1,2.306.206c1.343.045,2.262-1.2,1.486-2.727C79.743,19.275,76.015,19.658,74.658,19.876Zm107.119,2.638a10.081,10.081,0,0,1-3.212-.643c-2.357-.66-3.633-2.308-4.233-2.464s-1.064,1.291-.989,2.147c.205,2.444,4.134,3.778,6.61,4.285a13.6,13.6,0,0,0,3.231-.209c1.009-.066,1.838.2,2.072-.343s.549-.521.464-1.085C185.528,22.894,183.885,22.421,181.777,22.514Zm23.244-1.293c-.44-.124-2.87.649-4.155.72-.49.029-.632-.221-.643-.5-.035-.957,2.947-.846,2.907-1.853-.057-1.487-1.114-2.028-2.631-1.781,0,0-1.87.39-3.552.555-1.414.137-3.236,1.287-2.829,2.26.435,1.038,1.715.956,2.679.315.326-.218.274-.337.458-.622.23-.353.573-.242.735-.407.48-.494.721-.816,1.053-.4.123.154-.14,1.036-.232,1.267a2.489,2.489,0,0,1-1.08,1.307c-1.706.724-3.61,1.207-3.764,2.362-.035.263.622,1.071,1.038,1.2.47.152.706-.205,1.556-.641.331-.169,1.134.05,1.435-.082.538-.236,1.229-.9,1.385-.64.318.519.054,1.928-.767,2.969-.491.623-1.2,1.173-1.7,1.1-.185-.028-1.337.132-1.415.973a1.338,1.338,0,0,0,.9,1.521c1.777.555,2.772-1,4.035-2.393a5.41,5.41,0,0,0,1.23-2.21c.149-.822.356-.723.341-1.071-.027-.687-.382-.973-.2-1.133.593-.512,1.7-.26,1.953-.288a4.635,4.635,0,0,0,1.891-.309C206.692,22.783,205.531,21.368,205.021,21.222Zm-48.2.243c-.85-.118-1.124.912-1.342,1.74l-.186.628c-.457,1.212-2.844,2.145-4.858,2.408l-.545.08a3.159,3.159,0,0,1-2.71-.416,2.541,2.541,0,0,1-.487-2.222,1.558,1.558,0,0,1,.9-1.362c.2-.058.23.013.29.129.144.274.348.466,1.422.019.093-.038.173-.252.315-.658a4.457,4.457,0,0,1,.4-.937l.5-.636.333-.446a2.2,2.2,0,0,0-.254-2.2,2.644,2.644,0,0,0-2.445-.964,12.99,12.99,0,0,0-4.305,1.623c-1.354.7-2.521,1.307-3.4,1.17a1.26,1.26,0,0,1-.7-.422c-.167-.163-.324-.32-.537-.294-.3.036-.672.438-1.241,1.345a4.189,4.189,0,0,0-.31.964c-.173.678-.386,1.52-.759,1.7a.384.384,0,0,1-.33-.007.4.4,0,0,1-.237-.276c-.143-.565.608-1.6.615-1.612s.325-.959.325-.959a3.227,3.227,0,0,1,.282-.794c.746-1.269,2.019-1.346,3.367-1.428a4.679,4.679,0,0,0,2.023-.909c.4-.4,0-.967-.31-1.421l-.056-.086a1.527,1.527,0,0,0-1.818-.8,9.772,9.772,0,0,0-2.271,1.454,24,24,0,0,1-2.11,1.478l-.251.145c-1.467.841-3.155,1.892-3.193,2.557a.362.362,0,0,0,.16.325c.482.354,1.093-.126,1.633-.551.411-.326.8-.634,1-.435a.277.277,0,0,1,.1.209c0,.151-.124.339-.378.58l-.115.109a2.617,2.617,0,0,0-.861,1.43c-.377,1.242-.169,1.569.181,2.112l.351.6a1.836,1.836,0,0,1,.051,1.009l-.006.323a.685.685,0,0,0,.638.407c.139.007.221.011.288.177a1.518,1.518,0,0,1-.295,1.3c-.012,0-.052.02-.1-.087-.112-.27-.585-.274-.763-.275-.481-.008-.694.353-.881.673l-.14.229a1.613,1.613,0,0,0,.369,2.419,1.3,1.3,0,0,0,1.521.372c.708-.219,1-1.29,1.305-2.424l.1-.367a10.615,10.615,0,0,1,.926-2.432,2.893,2.893,0,0,0,.408-1.5l.084-.568a1.964,1.964,0,0,1,1.261-1.151,5.785,5.785,0,0,0,.97-.536l.793-.584a10.068,10.068,0,0,1,2.982-1.726,7.882,7.882,0,0,0,1.281-.648,5.49,5.49,0,0,1,1.75-.778l.115-.019c.5-.079,1.424-.227,1.674.129a1.811,1.811,0,0,1,.012,1.266.306.306,0,0,1-.348.136c-.266-.052-.273-.211-.262-.464a.518.518,0,0,0-.116-.455,2.675,2.675,0,0,0-1.1-.2c-.328,0-.632.326-.986.7a5.127,5.127,0,0,1-.878.8,4.376,4.376,0,0,0-1.649,3.878,3.723,3.723,0,0,0,1.218,2.586l.241.262c.894,1.331,2.253,2.474,6.093,1.843a8.952,8.952,0,0,0,5.705-2.94,4.716,4.716,0,0,0,.339-3.607A1.013,1.013,0,0,0,156.822,21.465Zm-17.935-7.515c.147-.034.239-.177.343-.343a1.12,1.12,0,0,1,1.039-.64c.3,0,.469.228.671.492a1.184,1.184,0,0,0,1.076.631c.562-.047,1.074-.68,1.524-1.238l.34-.408c.582-.651,3.215-2.888,4.109-3.062.428-.084.687-.074.811.033s.133.369.125.716l-.007.3a.825.825,0,0,0,.369.632c.151.135.283.253.25.431-.073.418-.444.606-.837.8s-.788.4-.9.838a1.486,1.486,0,0,0,.2,1.332.956.956,0,0,0,.864.278c.514-.064.821-.557,1.151-1.079a4.866,4.866,0,0,1,.693-.93,1.668,1.668,0,0,1,1.132-.474,1.73,1.73,0,0,0,1.007-.356,1.162,1.162,0,0,0,.471-.949,1.565,1.565,0,0,0-.772-1.18.957.957,0,0,0-1.372.195c-.1.094-.195.183-.252.177l-.056-.043c-.34-.484-.041-.919.277-1.382a3.37,3.37,0,0,0,.4-.693.759.759,0,0,0-.06-.778c-.232-.271-.741-.335-1.512-.185a2.294,2.294,0,0,0-.932.547,3.042,3.042,0,0,1-.981.608,9.088,9.088,0,0,0-2.265,1.1,3.28,3.28,0,0,1-1.028.516,4.743,4.743,0,0,1-.966-.023A3.234,3.234,0,0,0,142,9.954l-.537.569c-.241.288-.489.585-.663.593l-.111-.049c-.244-.246.064-.7.363-1.139l.117-.171A4.421,4.421,0,0,1,142.531,8.5a3.349,3.349,0,0,0,.671-.533.963.963,0,0,0,.152-1.117,1.145,1.145,0,0,0-1.11-.608c-.821.084-2.189,1.311-2.859,2.065a9.914,9.914,0,0,0-1.008,1.441,7.905,7.905,0,0,1-1.049,1.464,1.571,1.571,0,0,0,0,1.807A1.556,1.556,0,0,0,138.887,13.949Zm40.459,2.5c1.007-.64,1.658-1.651.742-2.341a1.471,1.471,0,0,0-1.272-.381c-1.385.04-1.223.752-2.165.81-.408.025,0-1.5.792-1.678,1.65-.372,3.54-1.242,3.816-2.708.224-1.2.1-2.359-1.9-1.85a8.148,8.148,0,0,0-3.76,1.959c-1.685,1.586-3.207,3.54-4.832,4.348-1.049.523-.879-.031-1.921.211-2.9.679-4.831,1.7-4.4,3.238a2.288,2.288,0,0,0,1.946,1.481c.729.141,1.378-.179,1.3.229a20.527,20.527,0,0,1-2.295,2.694,8.3,8.3,0,0,1-2.546,1.778c-1.887.836-2.467,1.15-2.372,1.778.118.766.892,1.093,1.729.994.939-.106,5.227-2.447,8.078-6.044a17.018,17.018,0,0,1,1.937-1.677c.69-.639.783-1.247,1.5-1.551C175.884,16.823,178.067,17.259,179.346,16.447ZM203.678,10.6c-.443-.012-.92.623-.519.961.343.288.2.845-.089,1.29-.118.185-.6.375-.686.566-.119.278.213.719.115,1.007s-.958.527-1.253.164c-.465-.561.647-1.465.651-1.891.026-2.238.945-2.892,1.317-3.088.826-.436.769-.793,1.224-.894.576-.128.99.476,1.034,1.182.042.662-.248,1.435-.8,1.483C204.056,11.441,204.048,10.613,203.678,10.6Zm-4.806,3.723s.009-.309,0-.328c-.235-.5.878-1.476.955-1.471C200.8,12.614,199.619,15.361,198.872,14.325Zm-1.537-.542c-.328-.189-.562-.146-.481-.692a2.745,2.745,0,0,1,1.6-2.278c1.259-.187,0,.992-.107,1.2C198.1,12.447,197.654,13.969,197.335,13.783Zm-2.087-.625c-.3,1.037.32.812-.281,1.774-.34.547-.2,1.152-.62.984-.32-.13-.051-.936-.062-1.712a8.539,8.539,0,0,1,.132-2.605c.3-.108,1.06-1.05,1.244-.788C195.968,11.256,195.334,12.618,195.248,13.158Zm14.04,1.862c-.618-1.83-4.31-.018-4.795-.964-.107-.21,1.025-1.36.809-1.121a6.578,6.578,0,0,0,1.563-2.761c.214-.9-.13-1.129-.245-1.661a2.631,2.631,0,0,0-.352-1.289,1.624,1.624,0,0,0-2.555-.106c-.644.685-1.275,2.369-2.059,2.427-.871.064-1.258-.377-1.1-.853.223-.681,1.116-1.639.99-2.092-.072-.258-.694-.38-1.318-.194S199.06,8,198.375,7.692c-.312-.145-.119-.9-.373-1.06-.707-.442-1.6,1.742-2.37,1.825a2.192,2.192,0,0,0-2.142,1.8c-.272.787-.419,2.137-.71,3.071-.336,1.076-.083,2.192-.482,2.474-.437.3-.376-.092-.893-.024-.746.1-2.1,3.4-1.566,5.482.1.394.727,1.133,1.307.957,1.062-.323.042-2.192.524-3.22.323-.686,2.84-.931,4.466-1.405a13.036,13.036,0,0,1,2.887-.732c1.872-.133,3.571-.642,4.717-.771.624-.069,1.3.086,1.933-.039.727-.144.469.737.789.957a2.075,2.075,0,0,0,2.511.106A1.994,1.994,0,0,0,209.288,15.021ZM126.14,18.229c-.593.565-.943.832-1.393.85-.238.011-.806-.449-.726-.729.2-.713-.067-.933.023-1.325.145-.642,1.052-.594,1.6-.7.729-.137,1.131-.5,1.29.016A2.894,2.894,0,0,1,126.14,18.229Zm-4.988-3.745c-.328.826-.876,1.249-1.265.96C119.6,15.231,120.6,13.9,121,13.1c.506-1,.675-.882.947-.735C122.25,12.531,121.6,13.359,121.152,14.484ZM113.524,12.3a2.523,2.523,0,0,1-.278,1.76c-.149.415.648.648.067.943a2.49,2.49,0,0,0-1.355,2.076c-.042.254-.358.232-.443,0a3.426,3.426,0,0,1-.048-2.3c.433-1.082.526-1.91.9-2.624.466-.9,1.215-1.382,1.433-1.2C114.22,11.282,113.483,11.9,113.524,12.3Zm14.633.951c-1.269-.3-2.988,1.192-3.62.609-.261-.242.124-.892.125-1.306a1.159,1.159,0,0,0-1.02-1.2c-.348-.025-.421-.454-.034-.562a6.475,6.475,0,0,1,1.42-.2c1.1-.1,1.71-.284,2.2-1.367a1.053,1.053,0,0,0-.571-1.2c-.64-.308-2.432-.029-4.3.363-2.01.422-4.143.769-4.43,1.58-.142.395-.488.885-.629,1.383a4.34,4.34,0,0,1-.613,1.7c-1.034,1.049-1.055,2.822-1.395,2.286-.232-.367-.811-.225-1.179-.241-.171-.007-.236-.462-.082-.666s.211-.053.459-.212a3.461,3.461,0,0,0,1.464-1.968c.106-1.458.464-2.619-.308-3.3a3.273,3.273,0,0,0-2.6-.6,4.726,4.726,0,0,0-1.779.61c-.822.548-.92,1.72-1.205,3.163a15.161,15.161,0,0,0-.568,2.275c-.091,1.147-.175,2.739-.2,3.556a7.829,7.829,0,0,0,.751,4.258c.339.612.3,1.572,1.234,1.447.775-.1-.133-2.87-.143-4.212a1.681,1.681,0,0,1,.405-1.384c.12-.1.189-.37.447-.3s.006.915.385.848c.673-.118.872-1.011,1.46-.8.461.166-.016.991-.463,1.548-.875,1.09-1.047,2.841.47,2.961.645.052,1.213-.925,1.358-1.827.113-.706-.035-1.118.106-1.682.117-.445.458-.6.643-1.146a14.488,14.488,0,0,1,.568-1.74c.336-.731.872-1.51,1.208-2.113a6.935,6.935,0,0,1,1.164-1.754,1.852,1.852,0,0,1,1.759-.565c.384.169-.868,1.252-1.57,2.2a7.146,7.146,0,0,0-1.314,4.731c.03.753.024,2.844.59,3.186a1.322,1.322,0,0,0,1.19.18c1.1-.33.293-2.375.776-3.392.1-.222.168-.609.53-.492s.277,4.526.186,7.122a30.259,30.259,0,0,0,.285,4.575c.06.574.141,1.115,1,1.117,1.21,0,1.179-2.585,1.155-4.185a11.054,11.054,0,0,1,.475-4.087,6.211,6.211,0,0,1,2.691-1.958c.876-.377,1.43-1.6,1.869-2.126a7.686,7.686,0,0,0,.859-3.5A1.387,1.387,0,0,0,128.157,13.248Zm-32.845,4.2c.126-.45.408-1.448-.25-1.691s-.594-1.748-.037-1.613c1.024.25,2.571-.107,2.661.122.368.931-.566,2.233-1.344,2.932-.292.26-.525.772-.7.929C95.172,18.551,95.084,18.254,95.312,17.449Zm8.44,6.735c-.548-.442-.213.175-1.767-.04-.441-.063-2.457-.707-3.476-.919A6.634,6.634,0,0,1,96.383,22.1c-.454-.353-1.155-.28-.435-1.29.435-.608-.353-1.071.1-1.437.385-.311,1.212-.723,1.693-1.143.577-.508,1.152-1.453,1.984-2.389.778-.872,1.114-3.495.163-3.963a8.408,8.408,0,0,0-2.779-.217c-.63-.031-1.338,1.112-1.224.108.08-.692,0-.96.533-1.277.836-.5,4.075-.5,3.617-2.119-.367-1.3-2.216.185-3.185-.429-.454-.284-.21-1.7-1.371-1.073-.161.086-.877.361-1.013.585s-.06,1.183-.163,1.2a22.236,22.236,0,0,0-3.276.536c-1.391.361-2.551-.139-3.365.7a3.925,3.925,0,0,0-.883,1.016,1.249,1.249,0,0,0,1.24,1.694c.415.022,2.351-1.464,3.278-1.733,1.074-.312,2.2-.581,2.508-.222.151.175.1.64-.137,1.129-.86,1.775-1.859,1.693-2.619,2.117-.169.094-.293-.261-.1-.564.258-.4.92-.848.869-1-.064-.192-1.385.032-2.461.53a4.258,4.258,0,0,0-.992.7c-.893.755-1.47,3.2-1.086,5.274.318,1.721.263,3.186,1.363,3.412,1.313.27,1.286-.99,1.026-2.971a4.059,4.059,0,0,1,.762-2.622,1.718,1.718,0,0,1,1.946-1.376c.071.007.156.374-.211.561-.478.244-.953.85-.919,1.189.041.413.453.757.652,1.25s-.763.878.366,1.464c.088.045-.379.585-.672.566-.137-.009-.188-.24-.321-.226-.409.048-.533,1.134-.577,1.258a5.418,5.418,0,0,1-1.57,1.923,37.563,37.563,0,0,0-3.365,3.681c-.915,1.189-.23,1.969,1.393,1.865.727-.046,1.966-1.635,2.605-2.374a6.241,6.241,0,0,1,2.019-1.737c.638-.154-.217,3.889.062,4.29.483.689,2,.934,2-.239,0-.532-.1-1.2-.134-2-.026-.621.125-1.366.141-1.93.023-.809.032-1.6.239-1.633.465-.078.749.614,1.592,1.322a13.1,13.1,0,0,0,7.981,2.616c1.47-.069,2.1-1.084.781-2.33C104.131,24.5,103.915,24.314,103.752,24.184ZM68.227,7.624c1.764-.563.417-2.629-1.177-2.4a3.7,3.7,0,0,0-1.182.272c-.371.2-.233.418-.478.695a.778.778,0,0,0-.185.934C65.5,7.942,66.772,8.084,68.227,7.624ZM272.984,38.632l1.541-2.175a1.726,1.726,0,0,0,.394-.935c0-.222-.2-.333-1.032-.359v-.32l2.831,0v.319c-.543.123-.751.32-1.246,1.008l-2.232,3.147,0,2.559c0,.874.231.972,1.178,1.01v.32l-4.035-.006v-.32c.947-.035,1.182-.133,1.183-1.008l0-2.559-2.467-3.51a1.308,1.308,0,0,0-.97-.654v-.32l3.887.006v.32c-.763.023-.984.134-.985.43,0,.173.221.43.478.824ZM261.84,42.873c.947-.035,1.181-.133,1.182-1.007l.011-6.423-1.034,0c-.972,0-1.354.392-1.627,1.524H260l.2-2.141,7.333.011.194,2.142h-.37c-.269-1.133-.649-1.527-1.621-1.528l-1.034,0-.009,6.424c0,.873.231.972,1.18,1.01l0,.319-4.035-.006ZM258.2,41.859c0,.874.233.972,1.228,1.01v.319l-4.134-.006v-.32c.995-.035,1.23-.132,1.231-1.007l.009-5.709c0-.874-.232-.972-1.228-1.012v-.319l4.134.007v.319c-1,.036-1.232.134-1.233,1.008Zm-9.585-1.32h.32a3.131,3.131,0,0,0,2.642,2.268,1.325,1.325,0,0,0,1.442-1.388c0-1.918-4.327-2.282-4.325-4.67a2.328,2.328,0,0,1,2.4-2.136,12.274,12.274,0,0,1,2.25.446c.234,0,.381-.184.444-.442h.319l0,2.658h-.319a2.568,2.568,0,0,0-2.335-2.095,1.14,1.14,0,0,0-1.281,1.167c0,1.711,4.329,1.766,4.323,4.707a2.4,2.4,0,0,1-2.587,2.321c-1.475,0-1.857-.52-2.435-.521-.222,0-.37.146-.419.417h-.443Zm-6.361-1.559c1.65-.023,2.733-.537,2.734-1.9a1.811,1.811,0,0,0-2.015-1.787c-.577,0-.713.121-.713.442Zm0,2.855c0,.874.232.971,1.179,1.01v.319l-4.01-.006v-.32c.923-.035,1.156-.132,1.157-1.007l.01-5.709c0-.874-.233-.973-1.156-1.011v-.32l3.606,0c2.694,0,3.677.818,3.675,2.2a2.319,2.319,0,0,1-2.071,2.311l2.383,3.042a1.033,1.033,0,0,0,.984.507v.319l-2.35,0-2.86-3.695h-.543Zm-10.966,1.311v-.32c.8-.035,1.033-.134,1.035-1.007l.009-5.709c0-.874-.233-.973-1.032-1.01v-.32l6.988.011.048,1.845h-.346c-.293-.935-.612-1.231-2.25-1.234l-1.266,0c-.382,0-.468.086-.468.429L234,38.475h1.427c1.3,0,1.588-.23,1.749-1.1h.321l0,2.953h-.321c-.17-.984-.662-1.231-1.744-1.233l-1.427,0-.006,2.892c0,.5.147.676,1.624.678,1.5,0,2.387-.266,3.1-1.742h.32l-.569,2.238Zm-5.011.189-3.041-7.584a1,1,0,0,0-.9-.666v-.32l3.667.005v.321c-.615-.026-.936.122-.936.54a4.945,4.945,0,0,0,.464,1.55l1.533,3.792,1.543-3.787a5.214,5.214,0,0,0,.471-1.5c0-.345-.344-.53-.934-.592v-.32l2.732,0v.32c-.616.147-.984.441-1.466,1.634l-2.656,6.6ZM220.589,41.8c0,.874.233.972,1.229,1.011v.319l-4.135-.006v-.32c1-.035,1.23-.132,1.231-1.007l.01-5.709c0-.874-.233-.973-1.229-1.012v-.319l4.134.006v.32c-1,.035-1.231.133-1.233,1.007ZM215.3,36.317c0-.812-.22-1.145-1.131-1.244v-.32l2.953,0v.32c-.91.1-1.132.43-1.134,1.241l-.01,7h-.419l-5.7-6.6-.008,4.835c0,.812.219,1.145,1.13,1.245v.319l-2.952,0v-.319c.911-.1,1.133-.429,1.134-1.241l.008-5.636a1.612,1.612,0,0,0-1.13-.85v-.32l2.276,0,4.975,5.766Zm-13.987,4.076a1.893,1.893,0,0,0,2.174,2.169c1.441,0,2.155-.982,2.158-2.52l.005-3.74c0-.812-.219-1.145-1.106-1.244l0-.32,2.9,0,0,.32c-.959.1-1.181.43-1.182,1.24l0,3.729c0,1.993-.842,3.271-3.229,3.268-2.264,0-3.4-.94-3.392-3.056l.007-4.183c0-.874-.233-.973-1.081-1.011v-.32l3.838.006v.32c-.848.035-1.083.133-1.085,1.008ZM187.863,43.08v-.319c.8-.036,1.034-.133,1.036-1.007l.007-5.709c0-.874-.231-.973-1.031-1.011v-.32l3.863.006v.32c-.923.035-1.157.133-1.158,1.008l-.009,5.869c0,.5.147.677,1.082.678,1.5,0,2.386-.268,3.1-1.743h.32l-.569,2.238Zm-3.91-3.008-1.237-3.312-1.26,3.308Zm-.128,3,0-.32c.577,0,.885-.122.887-.527a7.6,7.6,0,0,0-.5-1.54l-3.027,0a7.463,7.463,0,0,0-.482,1.538c0,.407.282.53.861.531v.32l-2.659,0,0-.32a1.167,1.167,0,0,0,1.022-.786L183,34.51h.406l2.93,7.2c.319.788.478,1.059,1.106,1.048v.319Zm-8.2-8.38,2.879.005v.319c-.8.035-1.034.134-1.035,1.008l-.009,5.709c0,.874.232.973,1.032,1.01v.32l-3.765-.006v-.319c.824-.035,1.059-.134,1.06-1.007l.009-5.881h-.025l-2.8,7.3h-.382l-2.719-7.312h-.025l-.009,5.648c0,.812.22,1.144,1.13,1.244v.319l-2.952,0V42.73c.91-.1,1.133-.428,1.134-1.241l.009-5.685c0-.578-.245-.8-1.131-.8v-.319l3.038,0,2.219,5.811Zm-13.715,4.163c1.649-.022,2.733-.537,2.735-1.9a1.812,1.812,0,0,0-2.016-1.786c-.578,0-.714.122-.714.442Zm0,2.855c0,.873.232.972,1.18,1.01v.32l-4.011-.006v-.32c.923-.035,1.157-.133,1.158-1.007L160.245,36c0-.873-.232-.973-1.155-1.01v-.321l3.606.005c2.694,0,3.677.818,3.676,2.2a2.32,2.32,0,0,1-2.072,2.31l2.383,3.043a1.031,1.031,0,0,0,.983.507v.319l-2.35,0-2.861-3.7h-.541Zm-7.435-6.681c-1.514,0-2.39,1.226-2.394,3.811s.868,3.815,2.382,3.817,2.388-1.226,2.392-3.81S155.987,35.034,154.475,35.032Zm-.014,8.194a4.117,4.117,0,0,1-4.176-4.386,4.187,4.187,0,1,1,8.366.013A4.116,4.116,0,0,1,154.461,43.226Zm-6.5-7.01c0-.812-.219-1.145-1.13-1.245v-.32l2.953,0v.32c-.91.1-1.133.43-1.134,1.241l-.01,7h-.419l-5.7-6.6-.007,4.836c0,.813.219,1.145,1.13,1.244v.32l-2.953,0v-.32c.91-.1,1.132-.428,1.134-1.24l.008-5.636a1.619,1.619,0,0,0-1.13-.85v-.32l2.276,0,4.974,5.765ZM133.7,40l-1.238-3.312-1.259,3.308Zm-.127,3v-.319c.578,0,.886-.122.886-.527a7.422,7.422,0,0,0-.5-1.54l-3.026,0a7.428,7.428,0,0,0-.482,1.538c0,.405.282.529.861.53l0,.319-2.656,0v-.32a1.168,1.168,0,0,0,1.022-.786l3.075-7.452h.406l2.93,7.2c.319.788.478,1.059,1.1,1.049V43Zm-7.153-6.814c0-.812-.219-1.145-1.131-1.245l0-.32,2.952.005v.319c-.911.1-1.133.43-1.135,1.241l-.01,7h-.418l-5.7-6.6-.008,4.837c0,.812.219,1.144,1.131,1.244v.32l-2.954,0v-.319c.91-.1,1.132-.429,1.134-1.241l.009-5.636a1.618,1.618,0,0,0-1.132-.85v-.32l2.276,0,4.974,5.766Zm-9.077,5.462c0,.873.231.972,1.228,1.011v.319l-4.134-.007v-.319c1-.035,1.23-.133,1.232-1.007l.009-5.709c0-.875-.233-.973-1.23-1.012V34.6l4.134.006v.32c-1,.035-1.231.134-1.232,1.008Zm-9.842-2.6,0,2.584c0,.874.234.972,1.033,1.01v.32l-3.74-.006v-.32c.8-.035,1.033-.133,1.035-1.007l.008-5.709c0-.873-.232-.972-1.032-1.01v-.32l3.741.005v.32c-.8.036-1.034.134-1.035,1.008l0,2.436,3.667.006,0-2.436c0-.874-.233-.973-1.032-1.011V34.6l3.74.005v.32c-.8.035-1.033.133-1.035,1.008l-.009,5.709c0,.874.233.972,1.032,1.011v.319l-3.74-.005v-.32c.8-.036,1.034-.133,1.035-1.007l0-2.584Zm-3.5,1.939a3.96,3.96,0,0,1-3.756,2.159,4.09,4.09,0,0,1-4.324-4.46,4.344,4.344,0,0,1,4.423-4.3,12.26,12.26,0,0,1,2.3.5c.245,0,.319-.134.517-.491h.418l.167,2.793h-.369a2.977,2.977,0,0,0-2.826-2.231c-1.968,0-2.833,2.124-2.836,3.736,0,2.251.967,3.766,3.046,3.77a3.6,3.6,0,0,0,2.907-1.731ZM86.455,42.606c.947-.035,1.182-.133,1.183-1.007l.009-6.423H86.614c-.972,0-1.354.391-1.626,1.523h-.37l.2-2.14,7.334.011.193,2.141h-.369c-.269-1.133-.65-1.527-1.623-1.528H89.321L89.311,41.6c0,.873.233.972,1.18,1.01v.32l-4.037-.006ZM78.016,40.28h.321a3.13,3.13,0,0,0,2.641,2.268A1.325,1.325,0,0,0,82.42,41.16c0-1.918-4.328-2.282-4.324-4.669a2.328,2.328,0,0,1,2.4-2.137,12.266,12.266,0,0,1,2.25.446c.234,0,.382-.184.443-.442h.32l0,2.657h-.32a2.566,2.566,0,0,0-2.334-2.1,1.141,1.141,0,0,0-1.282,1.167c0,1.711,4.328,1.766,4.324,4.706a2.4,2.4,0,0,1-2.587,2.322c-1.477,0-1.857-.519-2.436-.52-.221,0-.368.146-.418.417h-.443ZM73.868,39.9l-1.238-3.312L71.371,39.9Zm-.128,3v-.32c.577,0,.886-.122.886-.527a7.47,7.47,0,0,0-.5-1.54l-3.027,0a7.453,7.453,0,0,0-.482,1.538c0,.405.282.529.86.53v.32l-2.658,0v-.32a1.168,1.168,0,0,0,1.022-.786l3.075-7.451h.406l2.93,7.2c.319.788.478,1.058,1.106,1.049v.319Zm-13.057-.02v-.319c.8-.035,1.034-.134,1.035-1.008l.007-5.709c0-.875-.231-.973-1.031-1.011v-.32l6.989.011.046,1.846h-.344c-.294-.936-.614-1.232-2.25-1.234l-1.266,0c-.383,0-.468.086-.47.43l0,2.645,1.426,0c1.3,0,1.588-.232,1.749-1.105h.32l0,2.953h-.32c-.171-.984-.662-1.23-1.745-1.232l-1.428,0,0,2.891c0,.5.146.677,1.623.679,1.5,0,2.388-.267,3.1-1.743h.319L67.87,42.9Zm-37.026-3.76A15.468,15.468,0,1,1,39.127,23.658,15.49,15.49,0,0,1,23.658,39.127ZM39.674,23.658A16.015,16.015,0,1,0,23.658,39.673,16.037,16.037,0,0,0,39.674,23.658ZM23.658,46.407A22.748,22.748,0,1,1,46.406,23.658,22.779,22.779,0,0,1,23.658,46.407ZM23.658,0A23.658,23.658,0,1,0,47.316,23.658,23.688,23.688,0,0,0,23.658,0ZM24.6,24.06l4.689,3.283V25.889L24.6,22.606Zm-6.58-.393,4.688-3.283V18.931l-4.688,3.282Zm0,3.676,4.688-3.283V22.606l-4.688,3.283ZM32.861,22.49h0l.007,0a.91.91,0,1,1-1.044,1.491.012.012,0,0,0-.005,0l-.631-.442v1.455l1.675,1.174h0l.007,0a.91.91,0,1,1-1.044,1.49l-.005,0-.631-.443v1.455l1.675,1.174h0l.007,0a.91.91,0,1,1-1.044,1.49.011.011,0,0,0-.005,0L24.6,26.281V27.71l7.342,5.141.006,0a.91.91,0,0,1-1.044,1.491l-.005,0h0L24.6,29.93v4.922a.946.946,0,1,1-1.892,0s0,0,0-.007h0V29.93l-6.3,4.411h0l-.005,0a.91.91,0,0,1-1.044-1.491l.007,0,7.34-5.141V26.281L15.5,31.331h0l-.005,0a.909.909,0,1,1-1.043-1.49l.005,0,1.675-1.174V27.213l-.631.443h0l-.005,0a.909.909,0,1,1-1.043-1.49l.005,0,1.675-1.174V23.537l-.631.442h0l-.005,0a.91.91,0,0,1-1.043-1.491.013.013,0,0,0,.005,0l8.255-5.78V15.255L15.5,20.3h0a.018.018,0,0,1-.005,0,.909.909,0,1,1-1.043-1.49l.005,0,1.675-1.174V15.475a.946.946,0,1,1,1.892,0v.842l4.688-3.283V11h0s0-.005,0-.008a.946.946,0,0,1,1.892,0v2.042l4.689,3.283v-.842a.946.946,0,1,1,1.892,0s0,0,0,.007h0v2.16l1.675,1.174h0l.007,0a.91.91,0,1,1-1.044,1.49l-.005,0h0L24.6,15.255v1.455ZM23.658,9.1A14.559,14.559,0,1,0,38.218,23.658,14.579,14.579,0,0,0,23.658,9.1ZM24.6,20.385l4.689,3.283V22.212L24.6,18.931ZM9.909,36.37c-.021.033-.181.07-.218.167s-.063.193.023.26c.051.036-.021.08-.12.1-.073.017-.541.046-.551-.08-.007-.09.2-.325.432-.4.068-.046.116-.173.181-.2C9.764,36.182,9.933,36.341,9.909,36.37ZM8.8,36.38c-.189.13-.265.306-.333.3-.1-.013-.183-.1-.274-.144-.163-.074-.314-.119-.329-.159-.033-.087.08-.014.162-.073.3-.2.428-.331.551-.3s.182.085.258.1c.151.029.25,0,.24.029A1.1,1.1,0,0,1,8.8,36.38Zm-1.073-.391c-.02-.188.355-.134.414-.076C8.242,36.022,7.746,36.191,7.723,35.989Zm.957-.371c.041-.149.714.01.777.124.042.076-.037.127-.207.1C9,35.81,8.641,35.761,8.681,35.618Zm2.113.328c-.218-.122-.379-.215-.42-.35,0-.011-.042-.151-.088-.172s-.067.055-.148-.011a2.446,2.446,0,0,0-.591-.467c-.1-.042-.215-.252-.34-.27s-.439.072-.328.337c.048.115.38.1.622.3.118.1.252.043.286.213.015.067-.021.058-.056.061a6.235,6.235,0,0,0-.862-.316c-.28-.066-.528-.12-.632.132-.022.055.026.267-.136.207a.717.717,0,0,0-.507-.02,2.066,2.066,0,0,0-.187.181c-.127.159.088.309.023.36-.029.023-.183-.092-.327-.124-.1-.021-.209.077-.251.128-.063.08,0,.1.144.245a2.17,2.17,0,0,0,.7.456.738.738,0,0,1,.263.214c.052.088-.07.16-.178.1-.222-.121-1.171-.615-1.061-.074a.72.72,0,0,0,.282.34c.078.039.315.078.326.2.011.136-.359.24-.3.464.039.145.116.256.215.211.154-.071.439-.394.521-.385.24.026.58.6.831.468.3-.151.268-.367.177-.432a4.119,4.119,0,0,1-.55-.385c-.048-.054.05-.119.128-.163.193-.1.462.345.736.587.2.182.157.2.278.328a.321.321,0,0,0,.555-.163c.037-.114-.507-.55-.715-.7-.262-.187-.417-.236-.42-.373,0-.155.186-.041.19-.036.231.224,1.338.371,1.307-.327-.011-.238.191-.254-.032-.434-.019-.015-.271-.159-.284-.23a.129.129,0,0,1,.213-.094c.157.113.387.342.42.357C10.928,36.481,11.182,36.161,10.794,35.946Zm-.658-1.406a.681.681,0,0,0-.192-.118c-.077-.022-.086.023-.155.028a.146.146,0,0,0-.148.1c-.068.145.081.331.335.46C10.283,35.162,10.377,34.716,10.135,34.54ZM7.157,29.784l-.472.2.5,1.152-.953.413L5.78,30.507l-.473.207.456,1.045-.858.373-.482-1.1-.47.2.737,1.7,3.227-1.4ZM14.58,40.226c-.029.2-.316.326-.518.369-.076.017-.166.081-.213.092-.122.026-.106-.035.011-.15.067-.064.213-.207.124-.312s.07-.359.152-.282C14.287,40.086,14.588,40.177,14.58,40.226Zm.478-1.164c-.048-.094.132-.311-.128-.319a.627.627,0,0,0-.231,0c-.044.026-.127.2-.146.189a4.433,4.433,0,0,0-.611-.232c-.274-.074-.424-.273-.646-.211a.812.812,0,0,0-.25.086.247.247,0,0,0,.044.412c.07.045.547-.019.732.027.215.051.432.116.452.207.006.046-.047.118-.137.181a.767.767,0,0,1-.657.1c-.035,0-.023-.074.04-.105.082-.045.24-.057.247-.087s-.242-.129-.473-.15a.78.78,0,0,0-.238.021,1.29,1.29,0,0,0-.705.794c-.114.325-.268.571-.1.719.2.174.318-.044.468-.408a.793.793,0,0,1,.389-.373.338.338,0,0,1,.469-.045c.01.008-.012.08-.093.075a.345.345,0,0,0-.273.113c-.034.076,0,.175-.013.278s-.215.076-.08.287c.009.015-.122.064-.171.031-.022-.015-.007-.06-.033-.07-.075-.033-.2.142-.223.159a1.072,1.072,0,0,1-.457.175,7.554,7.554,0,0,0-.938.3c-.274.113-.233.313.056.456.126.063.5-.085.679-.15a1.238,1.238,0,0,1,.516-.1c.123.037-.421.644-.413.741.015.165.251.357.367.155.052-.09.1-.214.174-.355.055-.11.155-.221.213-.316.084-.137.163-.27.2-.256.089.033.071.178.144.382a2.588,2.588,0,0,0,1.107,1.234c.259.133.467.021.363-.324-.022-.075-.04-.131-.056-.17-.051-.128-.054.011-.3-.181-.069-.052-.35-.363-.5-.5a1.383,1.383,0,0,1-.254-.4c-.042-.106-.17-.164.053-.265.135-.06.045-.217.159-.236.1-.015.278,0,.4-.029.149-.03.34-.134.574-.213s.535-.488.418-.66c-.081-.121-.246-.179-.454-.31-.1-.069-.337.058-.219-.1.081-.11.094-.164.217-.167.192,0,.746.317.826,0C15.628,39.19,15.166,39.263,15.058,39.062ZM3.764,28.8l0-.009,1.482-.836.232.908Zm3.1.11-.882-.037-.3-1.173.76-.448L6.283,26.6l-3.13,1.967.175.684,3.7.275Zm4.153,6.546a.631.631,0,0,0-.577-.157c-.154.031-.017.193.014.226s.071.026.1.048c.116.089.189.238.268.252C11.13,35.872,11.212,35.652,11.021,35.452ZM21.24,43.1c-.136.074-.215.106-.3.087-.044-.009-.127-.121-.1-.169.07-.123.034-.177.068-.244.059-.112.224-.058.329-.052.141.011.234-.035.236.068A.547.547,0,0,1,21.24,43.1Zm-.736-.937c-.1.135-.223.187-.281.114-.04-.053.207-.251.322-.379.142-.16.167-.129.21-.09S20.641,41.979,20.5,42.165Zm-1.471-.29a.472.472,0,0,0-.351.316c-.021.045-.079.025-.083-.022a.652.652,0,0,1,.1-.426c.132-.18.192-.328.294-.44.13-.146.292-.2.323-.153.062.082-.1.16-.116.236a.481.481,0,0,1-.139.311C19.019,41.766,19.155,41.848,19.032,41.874Zm2.824.406c-.219-.119-.61.073-.7-.066-.036-.057.066-.159.088-.234a.219.219,0,0,0-.13-.272.055.055,0,0,1,.021-.107,1.216,1.216,0,0,1,.274.034.407.407,0,0,0,.472-.144.2.2,0,0,0-.048-.25,1.916,1.916,0,0,0-.81-.145c-.391-.019-.8-.06-.894.074-.044.066-.136.141-.185.225-.074.124-.119.237-.195.283-.243.143-.334.469-.37.354-.026-.079-.14-.081-.206-.1-.03-.011-.019-.1.017-.129s.044,0,.1-.017a.663.663,0,0,0,.366-.29c.091-.265.214-.46.1-.626a.63.63,0,0,0-.45-.239.931.931,0,0,0-.359.025c-.178.062-.254.272-.377.525a2.933,2.933,0,0,0-.217.391c-.073.207-.167.5-.211.648a1.5,1.5,0,0,0-.07.822c.03.128-.022.3.157.327.146.019.114-.536.179-.784.027-.1.059-.2.142-.236.026-.011.052-.059.1-.033s-.046.169.029.175c.129.011.212-.142.308-.076.076.053-.049.182-.162.264-.214.158-.332.474-.059.569.118.042.27-.112.34-.271.058-.124.049-.209.1-.3.042-.078.114-.088.174-.181a2.892,2.892,0,0,1,.189-.292c.1-.118.236-.237.329-.331a1.311,1.311,0,0,1,.3-.268.358.358,0,0,1,.353-.017c.062.051-.221.189-.4.33a1.367,1.367,0,0,0-.474.808c-.031.141-.136.525-.049.618a.253.253,0,0,0,.209.092c.222-.007.173-.424.313-.588.029-.036.06-.1.12-.065a5.674,5.674,0,0,1-.315,1.323,5.949,5.949,0,0,0-.173.859c-.017.11-.029.213.129.256.222.059.345-.419.42-.716a2.093,2.093,0,0,1,.289-.731,1.159,1.159,0,0,1,.591-.228c.179-.028.344-.228.448-.3a1.471,1.471,0,0,0,.332-.6A.266.266,0,0,0,21.857,42.28Zm5.668-.527a.244.244,0,0,0-.021.406.166.166,0,0,0,.161.009c.088-.035.116-.135.149-.24a.854.854,0,0,1,.077-.195.3.3,0,0,1,.171-.133.3.3,0,0,0,.158-.11.2.2,0,0,0,.038-.185.284.284,0,0,0-.189-.169.177.177,0,0,0-.229.1c-.012.022-.025.042-.034.044l-.011,0c-.081-.068-.049-.157-.017-.252a.65.65,0,0,0,.038-.137.141.141,0,0,0-.047-.132c-.054-.036-.144-.023-.27.039a.424.424,0,0,0-.137.139.565.565,0,0,1-.14.151,1.653,1.653,0,0,0-.341.294.592.592,0,0,1-.151.139.845.845,0,0,1-.169.04c-.122.023-.259.048-.3.109l-.066.122c-.029.06-.057.123-.088.132l-.021,0c-.052-.029-.021-.123.011-.213l.011-.035a.825.825,0,0,1,.177-.28.536.536,0,0,0,.09-.123.178.178,0,0,0-.023-.2.207.207,0,0,0-.222-.052,1.184,1.184,0,0,0-.4.49,1.767,1.767,0,0,0-.106.3,1.356,1.356,0,0,1-.114.3.277.277,0,0,0,.084.31.272.272,0,0,0,.31.09c.027-.013.034-.043.046-.076a.2.2,0,0,1,.15-.159c.049-.012.09.017.139.055a.213.213,0,0,0,.216.058c.094-.034.153-.167.2-.284L26.7,42a2.707,2.707,0,0,1,.567-.721c.069-.036.114-.045.141-.033s.04.06.056.12l.01.05a.162.162,0,0,0,.094.092c.033.016.06.029.064.062C27.636,41.651,27.581,41.7,27.525,41.754Zm16.026-13.1-2.9-.762-.165.624,2.906.763-.2.755.5.132.56-2.142-.5-.13Zm1.093-4.478a1.024,1.024,0,0,0-.167-.36.9.9,0,0,0-.291-.253.912.912,0,0,0-.412-.106.944.944,0,0,0-.565.137,1.274,1.274,0,0,0-.378.4l-.192.32c-.047.077-.089.141-.129.2a.728.728,0,0,1-.122.139.4.4,0,0,1-.133.082.447.447,0,0,1-.169.021.531.531,0,0,1-.223-.051.446.446,0,0,1-.155-.125.492.492,0,0,1-.086-.175.626.626,0,0,1-.023-.2,1.185,1.185,0,0,1,.1-.451,1.864,1.864,0,0,1,.148-.286l-.571-.057a1.565,1.565,0,0,0-.187.794,1.6,1.6,0,0,0,.048.468,1.027,1.027,0,0,0,.183.381.907.907,0,0,0,.32.262,1.152,1.152,0,0,0,.462.107,1.312,1.312,0,0,0,.329-.025.805.805,0,0,0,.25-.1,1.035,1.035,0,0,0,.206-.181,1.8,1.8,0,0,0,.187-.263l.225-.369c.029-.051.059-.1.088-.139a.716.716,0,0,1,.1-.114.4.4,0,0,1,.128-.079.425.425,0,0,1,.171-.023.394.394,0,0,1,.294.134.525.525,0,0,1,.1.37,1.284,1.284,0,0,1-.067.381c-.039.105-.076.2-.108.272l.539.05c.018-.05.046-.137.084-.262a1.757,1.757,0,0,0,.067-.469A1.437,1.437,0,0,0,44.644,24.173ZM40.9,26.641l3.481.515.094-.639L41,26Zm-1.058,3.726-.256.591,1.285.553,1.536,1.794.276-.64-1.038-1.148,1.563-.073.277-.639-2.346.118Zm-6,9.6c.1-.2.11-.422-.1-.448a.271.271,0,0,0-.24.058c-.221.138-.128.236-.278.336-.062.04-.139-.244-.028-.347.232-.215.456-.535.365-.8-.077-.216-.207-.393-.482-.12a1.52,1.52,0,0,0-.426.67,4.92,4.92,0,0,1-.375,1.159c-.122.183-.147.076-.293.214-.407.383-.622.729-.409.939a.426.426,0,0,0,.455.057c.132-.047.207-.157.232-.085a3.832,3.832,0,0,1-.12.652,1.506,1.506,0,0,1-.246.527c-.225.314-.29.417-.216.513a.262.262,0,0,0,.373,0,3.632,3.632,0,0,0,.742-1.738,3.328,3.328,0,0,1,.157-.455c.051-.168.01-.276.1-.393C33.312,40.355,33.707,40.221,33.84,39.967Zm1.76.66c-.155-.194-.467-.117-.8.1a1.889,1.889,0,0,1-.581.2,3.036,3.036,0,0,1-.917,0c-.111.031-.051.31.042.44.262.378,1.024.225,1.473.075a2.463,2.463,0,0,0,.5-.338c.158-.1.319-.14.306-.249S35.665,40.711,35.6,40.628Zm1.824-4.2a.553.553,0,0,0-.044-.043c-.1-.035-.084-.317-.074-.328C37.454,35.939,37.67,36.468,37.424,36.429Zm-.054-1.224c.054-.17,0-.21.045-.286.064-.1.2-.07.306.019s.163.228.094.308-.189-.017-.243.03-.04.208.059.2.147.086.167.185c.008.043-.031.132-.016.17.023.054.13.069.156.121s-.06.2-.151.191c-.143-.014-.114-.286-.173-.345C37.312,35.5,37.347,35.283,37.37,35.205Zm-.231,1.36c-.072.017-.1.056-.162-.029a.516.516,0,0,1-.092-.525c.146-.2.137.132.148.176C37.061,36.28,37.209,36.546,37.139,36.566Zm-.117.69c-.06.026-.135-.119-.243-.222-.154-.149-.357-.339-.341-.371.026-.055,0-.284.064-.274.1.018.2.287.264.373.1.18.156.067.206.276C37,37.159,37.1,37.221,37.022,37.256Zm.772-.505c.239-.271.4-.569.542-.742.076-.093.189-.163.259-.266.078-.118.165.035.241.022.191-.035.365-.179.358-.326a.378.378,0,0,0-.245-.325c-.337-.164-.593.581-.79.519-.045-.013-.047-.322-.043-.26a1.246,1.246,0,0,0-.166-.585c-.094-.149-.172-.133-.261-.19-.072-.045-.126-.115-.225-.125a.312.312,0,0,0-.366.331c.005.181.151.492.049.606s-.223.12-.268.033c-.063-.121-.072-.372-.152-.415-.044-.024-.148.042-.206.151s.058.373-.078.425c-.062.023-.141-.106-.2-.094-.158.037.021.452-.074.568a.414.414,0,0,0-.045.532c.073.143.237.344.326.511.1.191.29.306.274.4s-.065.038-.126.118c-.089.114.18.745.539.951.068.039.255.054.31-.048.1-.188-.295-.3-.369-.505-.051-.136.26-.509.418-.794A2.372,2.372,0,0,1,37.794,36.751Zm1.424-.223c-.078.042-.306.475-.472.659-.064.07-.118.057-.157.02-.139-.125.286-.514.144-.643-.211-.192-.432-.124-.606.116,0,0-.2.306-.413.556-.173.209-.266.611-.074.687s.365-.1.41-.32c.015-.072-.011-.082-.023-.146s.044-.11.044-.154c0-.134-.013-.208.09-.2.037,0,.124.159.144.2a.466.466,0,0,1,.031.321c-.134.329-.329.651-.192.829a.4.4,0,0,0,.307.022c.088-.043.071-.125.127-.3.022-.068.163-.147.184-.205.043-.1.046-.286.1-.274a.63.63,0,0,1,.3.5.454.454,0,0,1-.082.379c-.029.021-.165.2-.06.323a.264.264,0,0,0,.332.082c.32-.165.242-.51.225-.868a.992.992,0,0,0-.137-.463c-.09-.131-.049-.146-.1-.191-.1-.089-.187-.08-.185-.126.011-.15.2-.264.23-.3.05-.059.189-.178.217-.3C39.66,36.513,39.309,36.478,39.218,36.528Zm-9.865,6.431c-.153.019-.152.209-.152.364l0,.115c-.022.231-.392.5-.725.643l-.091.039a.564.564,0,0,1-.488.054.451.451,0,0,1-.188-.361.278.278,0,0,1,.091-.276c.031-.02.041-.011.057.009.038.038.082.061.248-.064.014-.012.017-.051.022-.129a.758.758,0,0,1,.028-.181l.055-.133.038-.093a.4.4,0,0,0-.146-.369.476.476,0,0,0-.468-.053,2.351,2.351,0,0,0-.669.482,1.208,1.208,0,0,1-.533.359.2.2,0,0,1-.137-.04c-.039-.019-.072-.041-.109-.025s-.1.106-.15.29a.667.667,0,0,0-.011.18c0,.124,0,.28-.051.329a.068.068,0,0,1-.059.013.062.062,0,0,1-.051-.035c-.052-.092.027-.305.029-.308s.013-.18.013-.18a.671.671,0,0,1,.009-.151c.072-.254.288-.326.518-.4a.874.874,0,0,0,.307-.25c.048-.088-.045-.169-.122-.233l-.012-.009a.272.272,0,0,0-.353-.056,1.743,1.743,0,0,0-.324.359c-.094.12-.193.246-.3.353l-.036.037c-.215.213-.456.474-.432.59a.062.062,0,0,0,.043.047c.1.039.182-.074.255-.17.056-.077.11-.148.152-.124a.051.051,0,0,1,.027.033c.008.023-.005.064-.038.118l-.017.023a.486.486,0,0,0-.081.286c-.007.232.044.28.131.357l.089.088a.337.337,0,0,1,.055.172l.013.056a.123.123,0,0,0,.13.039c.025,0,.039-.007.058.018a.27.27,0,0,1,.009.238s0,.005-.019-.011c-.033-.041-.112-.021-.144-.013-.084.023-.1.094-.12.157l-.016.048a.29.29,0,0,0,.177.4.232.232,0,0,0,.28-.006c.114-.071.114-.27.114-.48v-.068a1.973,1.973,0,0,1,.047-.463.538.538,0,0,0,0-.278l-.013-.1a.349.349,0,0,1,.165-.258A1.012,1.012,0,0,0,26.6,43.8l.11-.136a1.794,1.794,0,0,1,.436-.439,1.212,1.212,0,0,0,.191-.171,1,1,0,0,1,.266-.215l.018-.009c.084-.035.236-.106.3-.056a.316.316,0,0,1,.063.218.056.056,0,0,1-.055.04c-.047,0-.056-.023-.067-.068a.091.091,0,0,0-.042-.074.441.441,0,0,0-.2.018c-.056.013-.092.085-.137.167a.924.924,0,0,1-.115.178.784.784,0,0,0-.1.745.658.658,0,0,0,.33.39l.054.036c.217.186.5.321,1.138.033a1.6,1.6,0,0,0,.85-.772.845.845,0,0,0-.111-.64A.181.181,0,0,0,29.354,42.959Zm.983-38.593.009,0-.118,1.7-.886-.305ZM28.538,6.9l.516-.717,1.142.4-.043.879.628.217.079-3.7-.668-.23-2.264,2.94ZM15.72,8.094,14.576,5.6l.009,0,2.2,2.008.7-.323-1.466-3.2-.533.244L16.641,6.84l-.008,0L14.419,4.822l-.7.318,1.468,3.2Zm17.218.172-1.024-.542,1.4-2.657-.571-.3L31.1,7.877l1.6.843ZM22.051,3.261a.745.745,0,0,1,.43.072.45.45,0,0,1,.179.391.5.5,0,0,1-.131.414.632.632,0,0,1-.406.159l-.262.017L21.79,3.277ZM22,6.3l-.1-1.508.145-.01a.536.536,0,0,1,.306.059.492.492,0,0,1,.207.275l.425,1.117.685-.046-.549-1.307a1.2,1.2,0,0,0-.1-.191.488.488,0,0,0-.107-.115.3.3,0,0,0-.1-.053.73.73,0,0,0-.105-.022V4.48a.791.791,0,0,0,.47-.3.829.829,0,0,0,.154-.577,1.066,1.066,0,0,0-.1-.409.744.744,0,0,0-.234-.271.869.869,0,0,0-.343-.146,1.54,1.54,0,0,0-.429-.026l-1.1.074.24,3.511ZM18.242,4.161a.655.655,0,0,1,.177-.274.617.617,0,0,1,.262-.138.59.59,0,0,1,.294,0,.606.606,0,0,1,.282.162,1.222,1.222,0,0,1,.248.357,2.811,2.811,0,0,1,.205.583,2.8,2.8,0,0,1,.09.611,1.287,1.287,0,0,1-.054.431.592.592,0,0,1-.436.41.59.59,0,0,1-.294,0,.613.613,0,0,1-.282-.161,1.33,1.33,0,0,1-.25-.357,2.688,2.688,0,0,1-.2-.583,2.665,2.665,0,0,1-.092-.61A1.351,1.351,0,0,1,18.242,4.161Zm-.3,1.968a1.662,1.662,0,0,0,.435.471,1.237,1.237,0,0,0,.515.207,1.362,1.362,0,0,0,1.022-.252,1.2,1.2,0,0,0,.357-.422,1.61,1.61,0,0,0,.167-.62,2.633,2.633,0,0,0-.082-.822,2.584,2.584,0,0,0-.309-.762,1.625,1.625,0,0,0-.436-.473,1.242,1.242,0,0,0-.513-.209,1.4,1.4,0,0,0-.536.024,1.36,1.36,0,0,0-.486.229,1.209,1.209,0,0,0-.359.426,1.64,1.64,0,0,0-.166.62,2.542,2.542,0,0,0,.085.818A2.55,2.55,0,0,0,17.942,6.13Zm7.193-2.811h.011l.465,3.016.455.06,1.245-2.8.009,0-.369,2.91.58.074.442-3.49-.923-.118-1.067,2.51h-.011l-.388-2.7-.957-.122-.443,3.491.58.073ZM40.788,20.083l.5-.135-.333-1.211,1-.276.3,1.1.5-.136-.3-1.1.9-.248.318,1.162.5-.135-.488-1.786-3.394.929Zm-6.067-9.931a1.554,1.554,0,0,0,.707.61.963.963,0,0,0,.435.077,1.067,1.067,0,0,0,.456-.135,1.656,1.656,0,0,0,.457-.388l1.489-1.725-.488-.421L36.289,9.895a.989.989,0,0,1-.5.371.592.592,0,0,1-.629-.543.983.983,0,0,1,.293-.547l1.488-1.726-.488-.421L34.965,8.753a1.68,1.68,0,0,0-.316.509,1.091,1.091,0,0,0-.067.472A.963.963,0,0,0,34.722,10.152ZM43.98,20.957l.031.259a.75.75,0,0,1-.053.432.452.452,0,0,1-.381.2.483.483,0,0,1-.418-.113.617.617,0,0,1-.179-.4l-.03-.26Zm-3,.345,1.5-.173.017.145a.557.557,0,0,1-.044.306.5.5,0,0,1-.266.221l-1.1.476.078.682,1.281-.61a.993.993,0,0,0,.187-.11.454.454,0,0,0,.108-.111.27.27,0,0,0,.048-.108.5.5,0,0,0,.017-.1h.015a.793.793,0,0,0,.319.456.812.812,0,0,0,.581.127,1.044,1.044,0,0,0,.405-.124.75.75,0,0,0,.261-.246.923.923,0,0,0,.13-.349,1.518,1.518,0,0,0,.005-.428L44.4,20.259l-3.5.4ZM36.84,12.224,38.976,10.5l.007.009-1.406,2.626.483.6L40.8,11.533l-.366-.457-2.152,1.734,0-.007,1.416-2.645-.481-.6-2.739,2.207Zm2.9,4.633,3.65-.467-.273-.606-2.773.447,0-.009,2.179-1.762-.284-.633L39.46,16.237Zm-.965-1.924,3.007-1.826-.335-.551-3.008,1.827ZM9.068,14,6.107,12.1l-.349.544,2.96,1.9ZM7.58,16.7l-1.4-.667.448-.942,1.4.666.277-.581L5.127,13.663l-.276.584,1.292.615-.45.941L4.4,15.189l-.277.583L7.3,17.282ZM3.124,23.01l3,.152.033-.644-3-.152.038-.779-.513-.028L2.569,23.77l.514.025Zm.507-4.127a1.7,1.7,0,0,0,.472.446,2.539,2.539,0,0,0,1.38.389,1.659,1.659,0,0,0,.634-.139,1.418,1.418,0,0,0,.5-.382,1.666,1.666,0,0,0,.326-.641,2.851,2.851,0,0,0,.09-.445,1.032,1.032,0,0,0,0-.322l-.577-.126a.984.984,0,0,1,.054.3,1.333,1.333,0,0,1-.06.394,1.018,1.018,0,0,1-.169.347.826.826,0,0,1-.3.243,1.1,1.1,0,0,1-.439.1,1.865,1.865,0,0,1-.585-.082,1.79,1.79,0,0,1-.539-.236,1.1,1.1,0,0,1-.324-.315.829.829,0,0,1-.129-.365.976.976,0,0,1,.035-.386,1.007,1.007,0,0,1,.178-.371c.073-.088.134-.16.187-.217l-.549-.19c-.041.057-.1.148-.173.267a1.987,1.987,0,0,0-.18.446,1.647,1.647,0,0,0-.055.7A1.4,1.4,0,0,0,3.63,18.883Zm.043,7.666a.942.942,0,0,0,.545-.205,1.268,1.268,0,0,0,.325-.448l.153-.342c.035-.083.071-.153.1-.213a.855.855,0,0,1,.1-.153.448.448,0,0,1,.124-.1.472.472,0,0,1,.163-.043.578.578,0,0,1,.231.022.459.459,0,0,1,.274.267.633.633,0,0,1,.05.2,1.233,1.233,0,0,1-.038.458,1.7,1.7,0,0,1-.112.3l.576-.015a1.62,1.62,0,0,0,.085-.812,1.658,1.658,0,0,0-.107-.459,1.073,1.073,0,0,0-.229-.354.908.908,0,0,0-.351-.219,1.11,1.11,0,0,0-.472-.048,1.265,1.265,0,0,0-.322.066.786.786,0,0,0-.234.135.943.943,0,0,0-.182.206,1.725,1.725,0,0,0-.151.284l-.178.395a1.567,1.567,0,0,1-.07.146.793.793,0,0,1-.085.128.407.407,0,0,1-.116.093.421.421,0,0,1-.167.045.384.384,0,0,1-.307-.1.511.511,0,0,1-.148-.355,1.226,1.226,0,0,1,.02-.387c.023-.11.048-.2.07-.283l-.539.017c-.011.052-.029.142-.051.27a1.9,1.9,0,0,0-.009.474,1.488,1.488,0,0,0,.1.416,1.076,1.076,0,0,0,.211.335.9.9,0,0,0,.322.215A.912.912,0,0,0,3.674,26.549ZM9.838,12.922,7.75,11.147l.007-.009,2.841.888.5-.587L8.42,9.161l-.381.445,2.106,1.789-.008.008-2.862-.9-.5.582,2.68,2.28Zm.823-5.056.008-.007,1.382.991-.725.6Zm1.216,2.862-.343-.814.937-.766.728.5.515-.422L10.607,7.218l-.547.448,1.315,3.47Z" fill="#fff" fill-rule="evenodd"/>
    </g>
  </g>
</svg>
